# xmcd
#
# Track frame offsets:
#	150
#	13731
#	36038
#	72441
#	89755
#	108110
#	130925
#	158150
#	183235
#	209732
#	224668
#	251420
#	272354
#	289471
#	313187
#
# Disc length: 4373 seconds
#
# Revision: 0
# Processed by: cddbd v1.5.2PL0 Copyright (c) Steve Scherf et al.
# Submitted via: audiograbber 1.83.01
#
DISCID=e711130f
DTITLE=Silly and Gundermann and Seilschaft - Unplugged CD 1 - Silly and Gerhard Gunde
DTITLE=rmann and Seilschaft
DYEAR=1994
DGENRE=DDR
TTITLE0=Tamara Danz and Gerhard Gundermann  - P.S - live.
TTITLE1=Gerhard Gundermann  - Der 7te Samurai- live 
TTITLE2=Gerhard Gundermann - Niemandsland - live
TTITLE3=Gerhard Gundermann - Einsame Spitze - live
TTITLE4=Silly - Halloween in Ost Berlin - live
TTITLE5=Silly - Rot wie Mohn - live
TTITLE6=Silly - Schlohweisser Tag - live
TTITLE7=Silly - Kriminelle Energie - live
TTITLE8=Gerhard Gundermann - Nicaragua (Cuba) - live
TTITLE9=Gerhard Gundermann - Linda - live
TTITLE10=Gerhard Gundermann - Kann mich nicht erinnern - live
TTITLE11=Gerhard Gundermann - Gras - live
TTITLE12=Silly - Neider - live
TTITLE13=Silly - Fliegender Fisch - live
TTITLE14=Silly - So 'ne kleine Frau - live
EXTD=
EXTT0=
EXTT1=
EXTT2=
EXTT3=
EXTT4=
EXTT5=
EXTT6=
EXTT7=
EXTT8=
EXTT9=
EXTT10=
EXTT11=
EXTT12=
EXTT13=
EXTT14=
PLAYORDER=
